<svg width="50" height="50" viewBox="0 0 50 50" fill="none" xmlns="http://www.w3.org/2000/svg">
<path d="M17.7922 46C18.4582 45.7134 18.9247 45.0511 18.9247 44.2801V39.2217C18.9247 39.0372 18.9397 38.8451 18.9631 38.6503C18.95 38.654 18.9378 38.6568 18.9247 38.6597C18.9247 38.6597 16.1145 38.6597 15.5524 38.6597C14.1473 38.6597 12.9295 38.0976 12.3675 36.9735C11.7117 35.7557 11.4307 33.6949 9.74458 32.5708C9.46356 32.3834 9.65091 32.1024 10.213 32.1024C10.775 32.1961 11.9928 32.9455 12.7422 33.9759C13.5852 35.0063 14.4283 35.8494 15.9271 35.8494C18.2568 35.8494 19.5055 35.7323 20.2568 35.3295C21.1317 34.0284 22.3429 33.0392 23.6084 33.0392V33.0157C18.299 32.8453 14.907 31.0804 13.3276 28.3554C9.89446 28.3948 6.9053 28.7348 5.19948 29.0177C5.14515 28.7114 5.09831 28.4032 5.05803 28.0931C6.74137 27.8159 9.5947 27.4871 12.8752 27.4243C12.7703 27.1658 12.6794 26.9007 12.6026 26.629C9.31368 26.4623 6.47533 26.5925 4.93345 26.7199C4.91471 26.4089 4.88942 26.0988 4.88567 25.7841C6.43037 25.6576 9.1919 25.5311 12.3965 25.6801C12.3225 25.2117 12.2747 24.733 12.2747 24.2347C12.2747 22.6422 12.8368 20.9561 13.8672 19.5509C13.3988 17.9585 12.7431 14.5862 14.0546 13.3684C16.5838 13.3684 18.3636 14.5862 19.2067 15.3356C20.7982 14.6789 22.578 14.3042 24.5452 14.3042C26.5124 14.3042 28.2922 14.6789 29.791 15.3346C30.634 14.5852 32.4139 13.3675 34.9431 13.3675C36.3482 14.6789 35.5988 18.0512 35.1304 19.55C36.1609 20.9551 36.7229 22.5476 36.6292 24.2337C36.6292 24.6871 36.5871 25.1246 36.5262 25.5536C39.8039 25.3925 42.6403 25.5218 44.2113 25.6492C44.2094 25.9649 44.1803 26.273 44.1635 26.585C42.5982 26.4557 39.6905 26.3227 36.3332 26.5016C36.2498 26.8164 36.1487 27.1227 36.0288 27.4196C39.3505 27.4627 42.2722 27.784 44.0361 28.065C43.9958 28.376 43.949 28.6842 43.8946 28.9896C42.1036 28.703 39.0507 28.3676 35.5773 28.3507C34.0176 31.0467 30.6874 32.805 25.4819 33.0101V33.0392C27.9175 33.0392 30.1657 36.6925 30.1657 39.2217V44.2801C30.1657 45.0511 30.6322 45.7134 31.2982 46C39.8797 43.1598 46.0904 35.0663 46.0904 25.5452C46.0904 13.6654 36.426 4 24.5452 4C12.6644 4 3 13.6654 3 25.5452C3 35.0663 9.21063 43.1598 17.7922 46Z" fill="black"/>
</svg>
