<svg width="100" height="100" viewBox="0 0 100 100" fill="none" xmlns="http://www.w3.org/2000/svg">
<path d="M37.776 88C38.9817 87.4813 39.8261 86.2829 39.8261 84.8879V75.7345C39.8261 75.4006 39.8532 75.0531 39.8956 74.7005C39.8719 74.7073 39.8498 74.7124 39.8261 74.7175C39.8261 74.7175 34.7391 74.7175 33.7217 74.7175C31.1783 74.7175 28.9739 73.7004 27.9565 71.6663C26.7696 69.4628 26.2609 65.7336 23.2087 63.6995C22.7 63.3605 23.0391 62.852 24.0565 62.852C25.0739 63.0215 27.2783 64.3776 28.6348 66.2421C30.1609 68.1067 31.687 69.6323 34.4 69.6323C38.6171 69.6323 40.8774 69.4204 42.2373 68.6915C43.821 66.3371 46.0135 64.5471 48.3043 64.5471V64.5047C38.6934 64.1962 32.5534 61.0027 29.6946 56.0717C23.48 56.1429 18.0692 56.7582 14.9814 57.2701C14.883 56.7159 14.7983 56.1582 14.7253 55.5971C17.7724 55.0954 22.9374 54.5004 28.8756 54.3868C28.6857 53.919 28.5212 53.4393 28.3821 52.9477C22.4287 52.646 17.2909 52.8816 14.4998 53.1121C14.4659 52.5494 14.4201 51.9883 14.4133 51.4188C17.2095 51.1899 22.2083 50.9611 28.0091 51.2306C27.8751 50.3831 27.7887 49.5169 27.7887 48.6151C27.7887 45.7335 28.806 42.6824 30.6713 40.1398C29.8234 37.2582 28.6365 31.1559 31.0104 28.9524C35.5887 28.9524 38.8104 31.1559 40.3365 32.512C43.2174 31.3238 46.4391 30.6457 50 30.6457C53.5609 30.6457 56.7826 31.3238 59.4957 32.5103C61.0217 31.1543 64.2435 28.9507 68.8217 28.9507C71.3652 31.3238 70.0087 37.426 69.1609 40.1381C71.0261 42.6807 72.0435 45.5623 71.8739 48.6134C71.8739 49.4339 71.7976 50.2254 71.6874 51.0018C77.6205 50.7102 82.7549 50.9442 85.5985 51.1747C85.5951 51.7459 85.5426 52.3036 85.512 52.8681C82.6786 52.6341 77.4153 52.3934 71.3381 52.7172C71.1872 53.2867 71.004 53.841 70.787 54.3784C76.7998 54.4563 82.0885 55.0377 85.2814 55.5463C85.2085 56.109 85.1237 56.6667 85.0254 57.2193C81.7833 56.7006 76.2572 56.0938 69.9697 56.0633C67.1464 60.9417 61.1184 64.1233 51.6957 64.4945V64.5471C56.1043 64.5471 60.1739 71.1578 60.1739 75.7345V84.8879C60.1739 86.2829 61.0183 87.4813 62.224 88C77.7578 82.8606 89 68.2152 89 50.9865C89 29.4897 71.506 12 50 12C28.494 12 11 29.4897 11 50.9865C11 68.2152 22.2422 82.8606 37.776 88Z" fill="black"/>
</svg>
