<svg width="100" height="100" viewBox="0 0 100 100" fill="none" xmlns="http://www.w3.org/2000/svg">
<path d="M49.1304 12V35.1304H37.5652C31.1961 35.1304 26 29.9343 26 23.5652C26 17.1961 31.1961 12 37.5652 12H49.1304ZM49.1304 38.4348V61.5652H37.5652C31.1961 61.5652 26 56.3691 26 50C26 43.6309 31.1961 38.4348 37.5652 38.4348H49.1304ZM49.1304 64.8696V76.4348C49.1304 82.8039 43.9343 88 37.5652 88C31.1961 88 26 82.8039 26 76.4348C26 70.0657 31.1961 64.8696 37.5652 64.8696H49.1304ZM75.5652 23.5652C75.5652 29.9343 70.3691 35.1304 64 35.1304H52.4348V12H64C70.3691 12 75.5652 17.1961 75.5652 23.5652ZM64 38.4348C60.9327 38.4348 57.9911 39.6533 55.8222 41.8222C53.6533 43.9911 52.4348 46.9327 52.4348 50C52.4348 53.0673 53.6533 56.0089 55.8222 58.1778C57.9911 60.3467 60.9327 61.5652 64 61.5652C67.0673 61.5652 70.0089 60.3467 72.1778 58.1778C74.3467 56.0089 75.5652 53.0673 75.5652 50C75.5652 46.9327 74.3467 43.9911 72.1778 41.8222C70.0089 39.6533 67.0673 38.4348 64 38.4348Z" fill="black"/>
</svg>
