<svg width="100" height="100" viewBox="0 0 100 100" fill="none" xmlns="http://www.w3.org/2000/svg">
<path d="M84.1793 12H17.8278C15.1629 12 13 14.1629 13 16.8278V83.1722C13 85.8371 15.1629 88 17.8278 88H84.1722C86.8371 88 89 85.8371 89 83.1793V16.8278C89 14.1629 86.8371 12 84.1793 12ZM54.619 70.237C54.619 77.468 50.378 80.7619 44.186 80.7619C38.5878 80.7619 34.5517 77.0086 32.9048 73.5238L38.5949 70.0815C39.6905 72.0253 41.3586 73.5238 43.7619 73.5238C46.0592 73.5238 47.381 72.6261 47.381 69.1343V46.381H54.619V70.237ZM70.3181 80.7619C63.907 80.7619 60.2667 77.5316 58.2381 73.5238L63.6667 69.9048C65.144 72.3222 66.7556 74.6336 70.1626 74.6336C73.0253 74.6336 74.5238 73.2057 74.5238 71.2266C74.5238 68.8657 72.9687 68.0246 69.8233 66.6462L68.0986 65.904C63.1153 63.7835 59.8002 61.1257 59.8002 55.4993C59.8002 50.3251 63.7515 46.381 69.9152 46.381C74.3047 46.381 77.4572 47.9077 79.7333 51.9085L74.3612 55.365C73.1737 53.2374 71.9014 52.4033 69.9152 52.4033C67.8936 52.4033 66.6142 53.6897 66.6142 55.365C66.6142 57.436 67.8936 58.2701 70.8553 59.5565L72.58 60.2987C78.4539 62.808 81.7619 65.3739 81.7619 71.1417C81.7619 77.3549 76.8776 80.7619 70.3181 80.7619Z" fill="black"/>
</svg>
