<svg width="50" height="50" viewBox="0 0 50 50" fill="none" xmlns="http://www.w3.org/2000/svg">
<path d="M25 4C13.4043 4 4 13.4043 4 25C4 36.5957 13.4043 46 25 46C36.5957 46 46 36.5957 46 25C46 13.4043 36.5957 4 25 4ZM19.5217 34.1304C19.5217 34.587 19.0652 35.0435 18.6087 35.0435H14.9565C14.5 35.0435 14.0435 34.587 14.0435 34.1304V20.4348C14.0435 19.9783 14.5 19.5217 14.9565 19.5217H18.6087C19.0652 19.5217 19.5217 19.9783 19.5217 20.4348V34.1304ZM16.7826 18.6087C15.3217 18.6087 14.0435 17.3304 14.0435 15.8696C14.0435 14.4087 15.3217 13.1304 16.7826 13.1304C18.2435 13.1304 19.5217 14.4087 19.5217 15.8696C19.5217 17.3304 18.2435 18.6087 16.7826 18.6087ZM36.8696 34.1304C36.8696 34.587 36.413 35.0435 35.9565 35.0435H32.3043C31.8478 35.0435 31.3913 34.587 31.3913 34.1304V27.2826C31.3913 26.0043 30.387 25 29.1087 25C27.8304 25 26.8261 26.0043 26.8261 27.2826V34.1304C26.8261 34.587 26.3696 35.0435 25.913 35.0435H22.2609C21.8043 35.0435 21.3478 34.587 21.3478 34.1304V20.4348C21.3478 19.9783 21.8043 19.5217 22.2609 19.5217H25.913C26.3696 19.5217 26.8261 19.887 26.8261 20.4348C27.8304 19.887 28.8348 19.5217 30.0217 19.5217C33.7652 19.5217 36.8696 22.6261 36.8696 26.3696V34.1304Z" fill="black"/>
</svg>
