<svg width="100" height="100" viewBox="0 0 100 100" fill="none" xmlns="http://www.w3.org/2000/svg">
<path d="M85.7558 45.1919L54.5581 13.9942C53.2351 12.6647 51.4925 12 49.75 12C48.0075 12 46.2649 12.6647 44.9419 13.9942L38.7721 20.1641L46.4069 27.7989C48.9433 26.3081 52.2476 26.6308 54.4226 28.8057C56.5975 30.9806 56.9137 34.285 55.4229 36.8149L62.9287 44.3207C65.465 42.8298 68.7694 43.1525 70.9443 45.3274C73.5258 47.909 73.5258 52.091 70.9443 54.6726C68.3628 57.2541 64.1807 57.2541 61.5992 54.6726C59.4243 52.4976 59.1016 49.1933 60.5924 46.6569L53.0866 39.1512C52.551 39.4674 51.9895 39.6997 51.4022 39.8482V60.1454C54.2483 60.8811 56.3587 63.4433 56.3587 66.5217C56.3587 70.1746 53.4029 73.1304 49.75 73.1304C46.0971 73.1304 43.1413 70.1746 43.1413 66.5217C43.1413 63.4433 45.2517 60.8811 48.0978 60.1454V39.8482C46.9942 39.5642 45.9423 39.0156 45.0774 38.1508C42.9025 35.9759 42.5863 32.6715 44.0771 30.1416L36.4358 22.5003L13.7442 45.1919C11.0853 47.8444 11.0853 52.1556 13.7442 54.8081L44.9419 86.0058C46.2649 87.3353 48.0075 88 49.75 88C51.4925 88 53.2351 87.3353 54.5581 86.0058L85.7558 54.8081C88.4147 52.1556 88.4147 47.8444 85.7558 45.1919Z" fill="black"/>
</svg>
